Part 3

U2 - The Unforgettable Fire Collection DVD - Pride (In The Name Of Love) [Sepia Version] [1984].vob
U2 - U218 Videos - Pride (In The Name Of Love) [Slane Castle Version] [1984].vob
U2 - U218 Videos - Where The Streets Have No Name [1987].vob
U2 - Christmas (Baby Please Come Home) [1987].vob


So far

U2 - I Will Follow [Old Grey Whistle Test] [1981].vob
U2 - The Unforgettable Fire Collection DVD - 11 O'Clock Tick Tock [Bootleg Version] [1983].vob
U2 - The Unforgettable Fire Collection DVD - A Sort Of Homecoming [1984].vob
U2 - U218 Videos - New Year's Day [1983].vob
U2 - U218 Videos - Sunday Bloody Sunday [Live At Red Rocks] [1983].vob
U2 - The Unforgettable Fire Collection DVD - Bad [1984].vob
U2 - The Unforgettable Fire Collection DVD - Pride (In The Name Of Love) [1984].vob
U2 - The Unforgettable Fire Collection DVD - The Unforgettable Fire [1985].vob


Format info for the videos from "The Unforgettable Fire Collection DVD"

Video
ID                               : 224 (0xE0)
Format                           : MPEG Video
Format version                   : Version 2
Format profile                   : Main@Main
Format settings, BVOP            : Yes
Format settings, Matrix          : Custom
Bit rate mode                    : Constant
Bit rate                         : 8 000 Kbps
Width                            : 720 pixels
Height                           : 480 pixels
Display aspect ratio             : 4:3
Frame rate                       : 29.970 fps
Standard                         : NTSC
Color space                      : YUV
Chroma subsampling               : 4:2:0
Bit depth                        : 8 bits
Scan type                        : Interlaced
Scan order                       : Top Field First
Compression mode                 : Lossy

Audio
ID                               : 189 (0xBD)-160 (0xA0)
Format                           : PCM
Format settings, Endianness      : Big
Format settings, Sign            : Signed
Muxing mode                      : DVD-Video
Bit rate mode                    : Constant
Bit rate                         : 1 536 Kbps
Channel(s)                       : 2 channels
Channel positions                : Front: L R
Sampling rate                    : 48.0 KHz
Bit depth                        : 16 bits


Format info for the videos from "U218 Videos"

Video
ID                               : 224 (0xE0)
Format                           : MPEG Video
Format version                   : Version 2
Format profile                   : Main@Main
Format settings, BVOP            : Yes
Format settings, Matrix          : Custom
Bit rate mode                    : Variable
Nominal bit rate                 : 9 800 Kbps
Width                            : 720 pixels
Height                           : 576 pixels
Display aspect ratio             : 4:3
Frame rate                       : 25.000 fps
Standard                         : PAL
Color space                      : YUV
Chroma subsampling               : 4:2:0
Bit depth                        : 8 bits
Scan type                        : Interlaced
Scan order                       : Top Field First
Compression mode                 : Lossy

Audio
ID                               : 189 (0xBD)-160 (0xA0)
Format                           : PCM
Format settings, Endianness      : Big
Format settings, Sign            : Signed
Muxing mode                      : DVD-Video
Bit rate mode                    : Constant
Bit rate                         : 1 536 Kbps
Channel(s)                       : 2 channels
Channel positions                : Front: L R
Sampling rate                    : 48.0 KHz
Bit depth                        : 16 bits


Format info for "Christmas (Baby Please Come Home) [1987]"

Video
ID                               : 224 (0xE0)
Format                           : MPEG Video
Format version                   : Version 2
Format profile                   : Main@Main
Format settings, BVOP            : Yes
Format settings, Matrix          : Default
Duration                         : 2mn 20s
Bit rate mode                    : Variable
Bit rate                         : 5 313 Kbps
Nominal bit rate                 : 8 000 Kbps
Width                            : 720 pixels
Height                           : 480 pixels
Display aspect ratio             : 4:3
Frame rate                       : 29.970 fps
Standard                         : NTSC
Color space                      : YUV
Chroma subsampling               : 4:2:0
Bit depth                        : 8 bits
Scan type                        : Interlaced
Scan order                       : Top Field First
Compression mode                 : Lossy
Bits/(Pixel*Frame)               : 0.513
Stream size                      : 88.7 MiB (91%)

Audio
ID                               : 189 (0xBD)-128 (0x80)
Format                           : AC-3
Format/Info                      : Audio Coding 3
Mode extension                   : CM (complete main)
Muxing mode                      : DVD-Video
Duration                         : 2mn 20s
Bit rate mode                    : Constant
Bit rate                         : 384 Kbps
Channel(s)                       : 3 channels
Channel positions                : Front: L R, LFE
Sampling rate                    : 48.0 KHz
Bit depth                        : 16 bits
Compression mode                 : Lossy
Stream size                      : 6.41 MiB (7%)


Multimedia Analysis by Mediainfo  http://mediainfo.sourceforge.net


Visit  http://thepiratebay.org/user/dehou/ for more parts and videographys